<?xml version="1.0" encoding="iso-8859-1"?>
<!-- Generator: Adobe Illustrator 19.0.0, SVG Export Plug-In . SVG Version: 6.00 Build 0)  -->
<svg version="1.1" id="Layer_1" xmlns="http://www.w3.org/2000/svg" xmlns:xlink="http://www.w3.org/1999/xlink" x="0px" y="0px"
	 viewBox="0 0 492.616 492.616" style="enable-background:new 0 0 492.616 492.616;" xml:space="preserve">
<g>
	<g>
		<path d="M468.2,135.742c-22.7-50.8-63.9-90.9-116-113.1c-82.7-35.2-170.7-28.4-241.6,18.5C41.3,86.942,0,163.742,0,246.642
			c0,62.4,23.3,121.9,65.7,167.5c42.2,45.4,99.3,73.1,160.9,78c0.9,0.1,1.8,0.1,2.7,0.1c8.7,0,17.2-3.3,23.6-9.3
			c7.2-6.7,11.4-16.1,11.4-26v-75.9c0-1.1-0.1-2.2-0.3-3.2c0.2-1,0.3-2.1,0.3-3.2c0-9.9-8.1-18-18-18c-45.7,0-82.8-37.1-82.8-82.8
			v-54.6h165.6v54.6c0,23-9.7,45.1-26.5,60.7c-7.3,6.8-7.7,18.1-1,25.4c6.8,7.3,18.1,7.7,25.4,1c24.2-22.4,38-54.2,38-87.1v-72.6
			c0-9.9-8.1-18-18-18h-39.2v-59c0-9.9-8.1-18-18-18c-9.9,0-18,8.1-18,18v59h-51.2v-59c0-9.9-8.1-18-18-18c-9.9,0-18,8.1-18,18v59
			h-39.2c-9.9,0-18,8.1-18,18v72.6c0.1,59.5,43.9,108.8,100.9,117.5v64.9c-107.9-9.1-192.3-101-192.3-209.5
			c0-70.8,35.3-136.4,94.5-175.5c60.6-40.1,136.3-45.7,207.6-15.4c43.7,18.5,78.2,52.2,97.2,94.7c40.6,90.9,21.4,190.3-49,253.1
			c-7.4,6.6-8.1,18-1.4,25.4c6.6,7.4,18,8.1,25.4,1.4c38.7-34.6,65.1-79.4,76.4-129.8C498.7,246.842,492.4,189.842,468.2,135.742z"
			/>
	</g>
</g>
<g>
</g>
<g>
</g>
<g>
</g>
<g>
</g>
<g>
</g>
<g>
</g>
<g>
</g>
<g>
</g>
<g>
</g>
<g>
</g>
<g>
</g>
<g>
</g>
<g>
</g>
<g>
</g>
<g>
</g>
</svg>
